<?xml version="1.0" encoding="UTF-8"?>
<svg version="1.1" xmlns="http://www.w3.org/2000/svg" width="500" height="500">
<path d="M0 0 C1.22783203 -0.04350586 1.22783203 -0.04350586 2.48046875 -0.08789062 C16.51968826 -0.22806716 30.26065416 6.12635327 43.32617188 10.68945312 C52.03834627 13.65982084 60.57528801 15.72909922 69.625 17.3125 C70.7694458 17.51516479 70.7694458 17.51516479 71.93701172 17.72192383 C86.30017657 20.08808593 100.61765525 17.54357746 114.5625 14.125 C121.69791008 12.48261354 128.78939286 12.66195846 135.625 15.3125 C138.15310473 16.99790315 138.55288694 18.0910099 139.5 21 C139.68969748 26.02698328 138.48553325 29.90440474 135.390625 33.91015625 C118.27227921 50.45494921 90.50535469 48.84525788 68.625 49.3125 C69.3370459 49.58811768 70.0490918 49.86373535 70.78271484 50.14770508 C83.79522227 55.19517617 96.77587913 60.29686616 109.625 65.75 C111.19495728 66.41563965 111.19495728 66.41563965 112.79663086 67.09472656 C117.94201281 69.28651749 123.07477177 71.50443243 128.19076538 73.76383972 C130.70324361 74.87214588 133.21933686 75.97211717 135.7355957 77.07180786 C137.50281267 77.84875867 139.26422155 78.63887909 141.02539062 79.42944336 C153.65248414 84.95147151 164.73025197 85.54516884 178.29443359 85.34802246 C231.55219374 84.63224525 231.55219374 84.63224525 245.625 95.3125 C247.00625018 98.07500036 246.81579306 100.25981099 246.625 103.3125 C244.23009816 105.70740184 243.17511677 105.74268655 239.8828125 106.2421875 C238.42222412 106.47252686 238.42222412 106.47252686 236.93212891 106.70751953 C235.88202637 106.86591309 234.83192383 107.02430664 233.75 107.1875 C225.87090091 108.42797896 218.05391756 109.7900753 210.25 111.4375 C185.16381709 116.56449481 160.68434088 117.06031026 135.67138672 111.24609375 C127.94221746 109.45084994 120.18357398 107.78371277 112.43127441 106.09185791 C110.43396341 105.65529988 108.43697386 105.21726852 106.44030762 104.777771 C91.92012582 101.58217444 77.37399047 98.72844665 62.73452759 96.13980103 C52.687152 94.35503468 42.88951204 92.25274855 33.08520508 89.38110352 C23.42721072 86.57956974 13.56180814 84.81350996 3.625 83.3125 C2.95871582 83.2079248 2.29243164 83.10334961 1.60595703 82.99560547 C-5.71842271 82.00783025 -13.12354482 82.09051906 -20.50097656 82.07226562 C-22.842169 82.06263505 -25.18245281 82.03156827 -27.5234375 82 C-58.24654663 81.78402601 -90.95780843 92.0246778 -114.16796875 112.625 C-116.375 114.3125 -116.375 114.3125 -119.375 114.3125 C-116.19327055 84.45064335 -100.16697214 52.04546101 -77.2109375 32.49755859 C-67.71106577 25.17801211 -56.33102492 20.18831137 -45.5065918 15.14770508 C-43.30727285 14.12256353 -41.1134177 13.08636166 -38.91992188 12.04882812 C-13.62610967 0.15367793 -13.62610967 0.15367793 0 0 Z " fill="#2AAAE1" transform="translate(185.375,300.6875)"/>
<path d="M0 0 C1.9921875 1.75 1.9921875 1.75 3.875 4 C4.56980469 4.82371094 5.26460938 5.64742188 5.98046875 6.49609375 C8.32546078 9.403521 10.63070211 12.33574558 12.90234375 15.30078125 C20.02194894 24.46213541 27.44160385 33.38816115 34.9777832 42.20825195 C38.71523498 46.60712766 42.26519976 51.13755141 45.80297852 55.69750977 C49.10484254 59.92687026 52.54438536 64.01200208 56.0625 68.0625 C73.18535263 87.86269399 85.1399332 107.36856738 87 134 C87.07089844 134.85335937 87.14179688 135.70671875 87.21484375 136.5859375 C88.12351943 157.88529552 79.55117582 178.92897744 66 195 C65.35546875 195.80179688 64.7109375 196.60359375 64.046875 197.4296875 C49.96889927 214.16683642 28.61484336 224.54954717 7 227 C-18.42020474 228.5248535 -42.68380999 222.35287789 -62.37109375 205.4453125 C-70.24086806 198.1251361 -76.66874377 190.33312467 -82 181 C-82.44988281 180.23558594 -82.89976562 179.47117188 -83.36328125 178.68359375 C-88.7713442 168.78834545 -92.72844162 156.32786383 -93 145 C-93.03867188 143.9584375 -93.07734375 142.916875 -93.1171875 141.84375 C-93.73678019 110.72642843 -80.58575701 89.59545362 -61.17651367 66.94506836 C-57.84325178 63.04329786 -54.64790021 59.05234049 -51.5 55 C-47.01304331 49.22842913 -42.35333332 43.63140793 -37.609375 38.0703125 C-33.66380436 33.44218693 -29.83535576 28.71949978 -26 24 C-24.92079537 22.67950566 -23.84135193 21.35920647 -22.76171875 20.0390625 C-21.61187935 18.6302898 -20.46213949 17.22143584 -19.3125 15.8125 C-18.7777002 15.15918701 -18.24290039 14.50587402 -17.69189453 13.83276367 C-14.43178944 9.82998385 -11.30771918 5.75923172 -8.28588867 1.57299805 C-5.70723112 -1.58141445 -3.67185171 -1.13991814 0 0 Z M-11.375 37.75 C-11.85396729 38.34055176 -12.33293457 38.93110352 -12.82641602 39.53955078 C-23.72938758 53.27329554 -29.80977829 68.18913317 -28 86 C-27.36048556 89.22216891 -26.37827972 92.02404093 -25 95 C-24.69449219 95.71285156 -24.38898438 96.42570312 -24.07421875 97.16015625 C-17.80038566 110.09565938 -5.84445857 117.42310058 5.93701172 124.7109375 C26.67161379 137.66699654 42.85216898 153.62438931 49 178 C52.98727349 176.67090884 53.98639288 174.23844099 55.9375 170.75 C56.46645874 169.81196533 56.46645874 169.81196533 57.00610352 168.85498047 C66.08683603 152.17094453 67.35724886 132.93913896 62.0703125 114.8125 C57.78228661 102.51030158 50.03835592 92.96504485 41.5859375 83.30322266 C38.06650836 79.27926776 34.71080173 75.16363235 31.4375 70.9375 C27.39040597 65.71889792 23.21182059 60.64101526 18.92041016 55.62182617 C16.15243271 52.37958003 13.45534985 49.09485684 10.8125 45.75 C9.54420569 44.16463211 8.27337925 42.58128653 7 41 C6.3090625 40.13632813 5.618125 39.27265625 4.90625 38.3828125 C4.2153125 37.55523437 3.524375 36.72765625 2.8125 35.875 C2.20019531 35.12992188 1.58789062 34.38484375 0.95703125 33.6171875 C-0.90772314 31.83985626 -0.90772314 31.83985626 -3.40234375 31.3984375 C-7.24049421 32.28727234 -9.02511911 34.787378 -11.375 37.75 Z M-52 89 C-64.27709214 100.75466269 -70.73138047 116.64859067 -71.39794922 133.50585938 C-71.71862469 152.20796985 -65.7802587 169.12429055 -53 183 C-40.23367082 196.11136511 -24.51420425 203.88954757 -6.12133789 204.29174805 C4.79975767 204.38031718 18.03813998 204.19589497 27 197 C29.3044636 187.31215632 25.90131645 175.69875824 20.9375 167.375 C12.95011129 155.76910742 2.20300336 148.16273004 -9.5546875 140.75390625 C-28.74640199 128.65654805 -43.3904697 114.99673185 -49.2109375 92.44921875 C-49.60152344 91.23685547 -49.60152344 91.23685547 -50 90 C-50.66 89.67 -51.32 89.34 -52 89 Z " fill="#36ABE0" transform="translate(324,71)"/>
<path d="M0 0 C2.46861549 1.5869671 2.93368113 2.75972999 3.71484375 5.58984375 C4.08074574 9.96563058 3.09395497 13.28338683 1.8125 17.4375 C1.34553928 19.0271046 0.87940797 20.61695305 0.4140625 22.20703125 C0.05876465 23.40126709 0.05876465 23.40126709 -0.30371094 24.61962891 C-1.37177614 28.27097382 -2.34477209 31.94602329 -3.3125 35.625 C-3.63863281 36.85476563 -3.96476562 38.08453125 -4.30078125 39.3515625 C-4.53152344 40.22554688 -4.76226562 41.09953125 -5 42 C-4.23816406 41.41992188 -3.47632813 40.83984375 -2.69140625 40.2421875 C-1.65886719 39.46101563 -0.62632812 38.67984375 0.4375 37.875 C0.98664063 37.45686035 1.53578125 37.0387207 2.1015625 36.60791016 C5.14284472 34.31365617 8.20101046 32.270552 11.5 30.375 C17.86802313 26.2531523 22.10850681 19.69292967 26.65771484 13.74560547 C34.97817455 2.92507311 34.97817455 2.92507311 40 2 C43.37932259 2.31435559 44.57479454 2.57479454 47 5 C48.0121995 10.28593073 46.65075919 13.03362555 43.8125 17.5625 C38.38224606 25.52832341 32.75826764 33.44386198 23.39453125 36.81640625 C18.81893289 38.58135743 14.73567875 40.77953332 10.5168457 43.26416016 C-0.89813441 49.95428158 -12.37337691 54.3335675 -25.25 57.35180664 C-27.07096415 57.78102005 -28.88008297 58.26433048 -30.671875 58.80249023 C-39.08664444 61.00187457 -44.93809487 58.36130231 -52.625 54.8125 C-53.80707031 54.30396484 -54.98914063 53.79542969 -56.20703125 53.27148438 C-62.4907101 50.49119149 -62.4907101 50.49119149 -65 49 C-65.495 47.515 -65.495 47.515 -66 46 C-65.35562988 45.98018066 -64.71125977 45.96036133 -64.04736328 45.93994141 C-61.07289417 45.84354411 -58.09902043 45.73433899 -55.125 45.625 C-54.11179687 45.5940625 -53.09859375 45.563125 -52.0546875 45.53125 C-39.48904372 45.41719565 -39.48904372 45.41719565 -28.75 39.875 C-28.16734375 39.33617187 -27.5846875 38.79734375 -26.984375 38.2421875 C-21.2075173 31.71479318 -17.72389673 25.62859383 -14.875 17.375 C-8.49099432 -0.82838969 -8.49099432 -0.82838969 0 0 Z " fill="#2FAADF" transform="translate(356,313)"/>
<path d="M0 0 C1 1 1 1 1.29296875 3.359375 C1 6 1 6 -0.51171875 7.703125 C-1.22972656 8.21359375 -1.94773437 8.7240625 -2.6875 9.25 C-3.50476563 9.84425781 -4.32203125 10.43851562 -5.1640625 11.05078125 C-7.17363879 12.43201895 -9.18997256 13.80344863 -11.2109375 15.16796875 C-12.3287511 15.92355373 -13.44593123 16.68007667 -14.5625 17.4375 C-15.12461182 17.81874023 -15.68672363 18.19998047 -16.26586914 18.59277344 C-20.29098962 21.37635844 -23.62894327 24.41890426 -26.98046875 27.9609375 C-38.34212719 39.43247658 -47.98152046 46.09952225 -64.11328125 46.234375 C-66.03720703 46.24210937 -66.03720703 46.24210937 -68 46.25 C-69.87751953 46.2809375 -69.87751953 46.2809375 -71.79296875 46.3125 C-81.77005943 46.35385582 -92.59225965 45.99397973 -101 40 C-101 39.34 -101 38.68 -101 38 C-96.73739527 36.35330931 -92.48252941 34.80927285 -88.1171875 33.45703125 C-78.47192388 30.45094085 -69.77279 27.21489243 -61.15625 21.921875 C-57.10036915 19.45220498 -52.89215501 17.39162566 -48.62109375 15.32421875 C-43.76954735 12.87313942 -39.59092875 9.97234212 -35.3125 6.625 C-24.99856443 -1.16436831 -12.0677873 -8.77657258 0 0 Z " fill="#2CA9E0" transform="translate(428,337)"/>
<path d="M0 0 C2 2 2 2 2.5625 4.9375 C2.35231891 13.30971334 -5.92380263 21.81847453 -11.51171875 27.55078125 C-14.64058586 30.49002005 -17.51920095 32.34561995 -21.5625 33.8046875 C-27.2990768 36.01876806 -32.48406458 38.95403872 -37.8125 42 C-53.39657629 50.70593131 -53.39657629 50.70593131 -62 52 C-62.99 51.67 -63.98 51.34 -65 51 C-63.3767313 50.3291288 -61.75132422 49.66342971 -60.125 49 C-59.22007812 48.62875 -58.31515625 48.2575 -57.3828125 47.875 C-55 47 -55 47 -53 47 C-53.33 43.7 -53.66 40.4 -54 37 C-52.515 36.505 -52.515 36.505 -51 36 C-50.855625 34.80375 -50.71125 33.6075 -50.5625 32.375 C-50.12960657 28.8994842 -49.60383744 25.45049966 -49 22 C-48.34 22 -47.68 22 -47 22 C-46.67 21.34 -46.34 20.68 -46 20 C-46.62031591 26.57534861 -48.14897283 32.66692592 -50 39 C-48.85724609 38.12988281 -48.85724609 38.12988281 -47.69140625 37.2421875 C-46.14259766 36.07042969 -46.14259766 36.07042969 -44.5625 34.875 C-44.01335937 34.45686035 -43.46421875 34.0387207 -42.8984375 33.60791016 C-39.85715528 31.31365617 -36.79898954 29.270552 -33.5 27.375 C-27.13197687 23.2531523 -22.89149319 16.69292967 -18.34228516 10.74560547 C-8.06749242 -2.61648403 -8.06749242 -2.61648403 0 0 Z " fill="#30A9DE" transform="translate(401,316)"/>
<path d="M0 0 C0.99 0 1.98 0 3 0 C3 0.66 3 1.32 3 2 C4.98 2 6.96 2 9 2 C9 2.66 9 3.32 9 4 C9.80179688 4.08636719 10.60359375 4.17273438 11.4296875 4.26171875 C18.37147202 5.11960368 24.86469672 6.40527606 31.5625 8.375 C38.36174592 10.36587003 45.16182882 11.94022413 52.125 13.25 C53.42159546 13.49435791 53.42159546 13.49435791 54.74438477 13.74365234 C59.81586967 14.67075624 64.87860692 15.40861512 70 16 C70 16.66 70 17.32 70 18 C70.83144531 17.98839844 71.66289062 17.97679687 72.51953125 17.96484375 C73.60621094 17.95582031 74.69289063 17.94679688 75.8125 17.9375 C76.89144531 17.92589844 77.97039062 17.91429687 79.08203125 17.90234375 C82 18 82 18 85 19 C85 19.66 85 20.32 85 21 C85.99580078 20.96519531 85.99580078 20.96519531 87.01171875 20.9296875 C91.92693218 20.82923058 95.46952779 20.9732098 100 23 C102.66341692 23.45644245 105.30888582 23.72632737 108 24 C108 24.66 108 25.32 108 26 C109.14339844 25.97292969 110.28679687 25.94585937 111.46484375 25.91796875 C115.9381228 25.92092271 120.1697178 26.51345093 124.5625 27.3125 C125.27857422 27.43044922 125.99464844 27.54839844 126.73242188 27.66992188 C127.79493164 27.85844727 127.79493164 27.85844727 128.87890625 28.05078125 C129.5035376 28.16075439 130.12816895 28.27072754 130.77172852 28.3840332 C133 29 133 29 136.31591797 30.5300293 C140.18383588 32.07335161 142.92501131 32.41299241 147.06640625 32.46875 C147.73031876 32.47817627 148.39423126 32.48760254 149.07826233 32.49731445 C151.24011577 32.51811732 153.40059232 32.51167729 155.5625 32.5 C156.30433533 32.50056396 157.04617065 32.50112793 157.81048584 32.50170898 C171.49835806 32.47971278 184.42972016 30.72434491 197.8515625 28.09375 C202.68903023 27.15585865 207.08325897 26.75719797 212 27 C209.30211017 28.45218628 206.8653369 29.3837252 203.8671875 30 C203.07103027 30.1640332 202.27487305 30.32806641 201.45458984 30.49707031 C174.91964256 35.67045583 149.5773756 37.10067472 123.04638672 30.93359375 C115.31721746 29.13834994 107.55857398 27.47121277 99.80627441 25.77935791 C97.80896341 25.34279988 95.81197386 24.90476852 93.81530762 24.465271 C79.29512582 21.26967444 64.74899047 18.41594665 50.10952759 15.82730103 C40.06947651 14.04383577 30.27394111 11.95338675 20.47998047 9.07080078 C10.81265973 6.25572925 0.92736595 4.61635277 -9 3 C-9 2.67 -9 2.34 -9 2 C-7.741875 1.979375 -6.48375 1.95875 -5.1875 1.9375 C-4.47980469 1.92589844 -3.77210938 1.91429687 -3.04296875 1.90234375 C-1 2 -1 2 2 3 C2 2.34 2 1.68 2 1 C1.34 0.67 0.68 0.34 0 0 Z " fill="#58B1D2" transform="translate(198,381)"/>
<path d="M0 0 C1.67641098 4.09086452 0.2409319 7.71511018 -0.9375 11.75 C-1.13279297 12.44738281 -1.32808594 13.14476562 -1.52929688 13.86328125 C-2.0108246 15.57798973 -2.50425157 17.28934877 -3 19 C-2.23816406 18.32710938 -1.47632813 17.65421875 -0.69140625 16.9609375 C7.4648977 10.09282014 7.4648977 10.09282014 11.51953125 9.84765625 C13.75 10.4375 13.75 10.4375 15.88671875 11.23828125 C19.27130362 12.45823328 22.43565321 12.12961261 26 12 C21.20315893 15.7571179 15.89278798 18.51612355 10.5625 21.4375 C9.54478516 22.01048828 8.52707031 22.58347656 7.47851562 23.17382812 C0.31890003 27.09424775 -6.95650764 30.36856786 -15 32 C-15.99 31.67 -16.98 31.34 -18 31 C-16.3767313 30.3291288 -14.75132422 29.66342971 -13.125 29 C-12.22007812 28.62875 -11.31515625 28.2575 -10.3828125 27.875 C-8 27 -8 27 -6 27 C-6.33 23.7 -6.66 20.4 -7 17 C-6.01 16.67 -5.02 16.34 -4 16 C-3.7834375 14.205625 -3.7834375 14.205625 -3.5625 12.375 C-3.12960657 8.8994842 -2.60383744 5.45049966 -2 2 C-1.34 2 -0.68 2 0 2 C0 1.34 0 0.68 0 0 Z " fill="#54B2D8" transform="translate(354,336)"/>
<path d="M0 0 C0.495 1.485 0.495 1.485 1 3 C-0.1796875 5.15625 -0.1796875 5.15625 -1.875 7.5 C-3.73229619 10.09157608 -4.98483238 11.95449714 -6 15 C-13.3862171 15.89984371 -20.72236936 16.31695395 -28.15429688 16.60546875 C-29.00958984 16.64285156 -29.86488281 16.68023437 -30.74609375 16.71875 C-31.51622803 16.74904297 -32.2863623 16.77933594 -33.07983398 16.81054688 C-35.08324584 16.89277692 -35.08324584 16.89277692 -37 18 C-25.55409046 23.09978858 -16.92344344 26.58744599 -4.36328125 23.3125 C-2 23 -2 23 1 25 C-1.53836153 25.70242071 -4.07944063 26.38710202 -6.625 27.0625 C-7.33785156 27.26166016 -8.05070312 27.46082031 -8.78515625 27.66601562 C-9.48769531 27.84970703 -10.19023437 28.03339844 -10.9140625 28.22265625 C-11.5529541 28.39547119 -12.1918457 28.56828613 -12.85009766 28.74633789 C-19.95572567 29.58471485 -26.4942971 25.88359694 -32.8125 23.125 C-34.40481445 22.45404297 -34.40481445 22.45404297 -36.02929688 21.76953125 C-37.03669922 21.33253906 -38.04410156 20.89554687 -39.08203125 20.4453125 C-40.00218018 20.04844238 -40.9223291 19.65157227 -41.87036133 19.24267578 C-44 18 -44 18 -45 15 C-44.35562988 14.98018066 -43.71125977 14.96036133 -43.04736328 14.93994141 C-40.07289417 14.84354411 -37.09902043 14.73433899 -34.125 14.625 C-33.11179687 14.5940625 -32.09859375 14.563125 -31.0546875 14.53125 C-18.38087143 14.40474988 -18.38087143 14.40474988 -7.625 8.6875 C-6.98820312 8.07132812 -6.35140625 7.45515625 -5.6953125 6.8203125 C-3.66269374 4.63782323 -1.75471106 2.41272771 0 0 Z " fill="#5BB0D3" transform="translate(335,344)"/>
<path d="M0 0 C0.99 0 1.98 0 3 0 C3 0.66 3 1.32 3 2 C4.98 2 6.96 2 9 2 C9 2.66 9 3.32 9 4 C9.80179688 4.08636719 10.60359375 4.17273438 11.4296875 4.26171875 C18.37147202 5.11960368 24.86469672 6.40527606 31.5625 8.375 C38.36174592 10.36587003 45.16182882 11.94022413 52.125 13.25 C53.42159546 13.49435791 53.42159546 13.49435791 54.74438477 13.74365234 C59.81586967 14.67075624 64.87860692 15.40861512 70 16 C70 16.66 70 17.32 70 18 C70.83144531 17.98839844 71.66289062 17.97679687 72.51953125 17.96484375 C73.60621094 17.95582031 74.69289063 17.94679688 75.8125 17.9375 C76.89144531 17.92589844 77.97039062 17.91429687 79.08203125 17.90234375 C82 18 82 18 85 19 C85.495 20.485 85.495 20.485 86 22 C79.83685342 21.37458632 73.79374157 20.50701491 67.70703125 19.36328125 C66.84677841 19.2033519 65.98652557 19.04342255 65.10020447 18.87864685 C62.33662905 18.36178908 59.57443228 17.83806344 56.8125 17.3125 C55.86870483 17.13392456 54.92490967 16.95534912 53.95251465 16.7713623 C42.59414583 14.61248516 31.38317621 12.29983635 20.28588867 9.0222168 C10.68715166 6.21856253 0.85903971 4.60522804 -9 3 C-9 2.67 -9 2.34 -9 2 C-7.741875 1.979375 -6.48375 1.95875 -5.1875 1.9375 C-4.47980469 1.92589844 -3.77210938 1.91429687 -3.04296875 1.90234375 C-1 2 -1 2 2 3 C2 2.34 2 1.68 2 1 C1.34 0.67 0.68 0.34 0 0 Z " fill="#5CB4D4" transform="translate(198,381)"/>
<path d="M0 0 C2 2 2 2 2.5625 4.9375 C2.35120203 13.35420232 -6.03785781 22.02887336 -11.72265625 27.7265625 C-15.21360585 30.97292327 -15.21360585 30.97292327 -17 32 C-19.21484375 31.66015625 -19.21484375 31.66015625 -21 31 C-20.01 31 -19.02 31 -18 31 C-18 29.68 -18 28.36 -18 27 C-16.68 27 -15.36 27 -14 27 C-14 26.34 -14 25.68 -14 25 C-13.34 25 -12.68 25 -12 25 C-12.33 24.01 -12.66 23.02 -13 22 C-12.21625 21.79375 -11.4325 21.5875 -10.625 21.375 C-7.71731803 20.21285656 -7.71731803 20.21285656 -6.8125 17.0625 C-6.544375 16.051875 -6.27625 15.04125 -6 14 C-5.34 13.01 -4.68 12.02 -4 11 C-4.66 11 -5.32 11 -6 11 C-6.33 10.01 -6.66 9.02 -7 8 C-9.85778033 7.31506627 -9.85778033 7.31506627 -13 7 C-13.99 7.66 -14.98 8.32 -16 9 C-14.43989422 4.78771439 -11.5154607 2.65453155 -8 0 C-4.67679974 -1.10773342 -3.30835256 -0.93312508 0 0 Z " fill="#30ABE1" transform="translate(401,316)"/>
<path d="M0 0 C0.66 0.33 1.32 0.66 2 1 C1.34 1.66 0.68 2.32 0 3 C0.33 3.66 0.66 4.32 1 5 C0.01 5.99 -0.98 6.98 -2 8 C-1.34 8.33 -0.68 8.66 0 9 C0 9.66 0 10.32 0 11 C-0.66 11 -1.32 11 -2 11 C-2.66 12.32 -3.32 13.64 -4 15 C-4.66 15 -5.32 15 -6 15 C-6.33 16.65 -6.66 18.3 -7 20 C-10 16.25 -10 16.25 -10 14 C-10.66 14 -11.32 14 -12 14 C-12.0825 14.5775 -12.165 15.155 -12.25 15.75 C-13.20710491 18.62131472 -14.8743794 19.8743794 -17 22 C-17.70211894 23.65204456 -18.36971413 25.31923769 -19 27 C-20.5 29.3125 -20.5 29.3125 -22 31 C-22.66 31 -23.32 31 -24 31 C-24.495 32.485 -24.495 32.485 -25 34 C-25.66 34 -26.32 34 -27 34 C-21.85364178 20.27637808 -11.26727565 9.07409124 0 0 Z " fill="#35ACE0" transform="translate(111,331)"/>
<path d="M0 0 C0.99 0.33 1.98 0.66 3 1 C-17.95845668 21.11843837 -17.95845668 21.11843837 -32.62109375 21.1328125 C-33.88630859 21.13410156 -35.15152344 21.13539063 -36.45507812 21.13671875 C-37.76927734 21.13285156 -39.08347656 21.12898438 -40.4375 21.125 C-41.74783203 21.12886719 -43.05816406 21.13273437 -44.40820312 21.13671875 C-46.30795898 21.13478516 -46.30795898 21.13478516 -48.24609375 21.1328125 C-49.39779053 21.13168457 -50.5494873 21.13055664 -51.73608398 21.12939453 C-54.90640843 21.00371034 -57.88650717 20.59386065 -61 20 C-61 19.67 -61 19.34 -61 19 C-59.86457764 18.98541748 -58.72915527 18.97083496 -57.55932617 18.95581055 C-53.34904391 18.89786324 -49.1392985 18.82063059 -44.92944336 18.73754883 C-43.10694081 18.7042826 -41.28433481 18.67625594 -39.46166992 18.65356445 C-36.8424875 18.62004919 -34.22425452 18.56773648 -31.60546875 18.51171875 C-30.38188911 18.50213387 -30.38188911 18.50213387 -29.1335907 18.49235535 C-24.73344666 18.37783851 -23.00967024 18.06116909 -20 15 C-19.01 15 -18.02 15 -17 15 C-16.95875 14.38125 -16.9175 13.7625 -16.875 13.125 C-16.441875 12.073125 -16.441875 12.073125 -16 11 C-14.700625 10.5978125 -14.700625 10.5978125 -13.375 10.1875 C-9.27262158 8.74407056 -7.45165002 6.65818048 -4.61328125 3.4609375 C-3 2 -3 2 0 2 C0 1.34 0 0.68 0 0 Z " fill="#58B0D2" transform="translate(400,362)"/>
<path d="M0 0 C0.66 0.33 1.32 0.66 2 1 C1 3 1 3 -2.375 4.4375 C-5.87589207 5.66829041 -5.87589207 5.66829041 -7.5 7.5625 C-9 9 -9 9 -12.5625 9.875 C-16.16704486 10.61264047 -16.16704486 10.61264047 -17.3125 13.5 C-17.539375 14.325 -17.76625 15.15 -18 16 C-18.66 16.66 -19.32 17.32 -20 18 C-21.98928868 17.77172097 -23.97881184 17.53644751 -25.95703125 17.2265625 C-28.47125328 16.94773864 -30.57518832 17.31802172 -33 18 C-29.83558258 14.43893266 -26.60739615 12.57985986 -22.3359375 10.51171875 C-21.38601425 10.05053398 -21.38601425 10.05053398 -20.41690063 9.58003235 C-19.08590326 8.93653192 -17.75287995 8.2972068 -16.41796875 7.66186523 C-14.36886456 6.68457379 -12.3288311 5.68996424 -10.2890625 4.69335938 C-8.99269223 4.06926298 -7.69583368 3.44617963 -6.3984375 2.82421875 C-5.21942871 2.25791748 -4.04041992 1.69161621 -2.82568359 1.1081543 C-1.89320801 0.74246338 -0.96073242 0.37677246 0 0 Z " fill="#36ABDD" transform="translate(146,313)"/>
<path d="M0 0 C-1.36852026 4.10556077 -3.32717212 4.80375846 -7.03515625 6.79296875 C-12.7800747 9.13180907 -18.90125907 10.01166649 -25 11 C-24.01 11.33 -23.02 11.66 -22 12 C-22 12.66 -22 13.32 -22 14 C-21.01 14 -20.02 14 -19 14 C-19 14.66 -19 15.32 -19 16 C-23.72463088 15.53680089 -27.17057052 14.90108294 -31 12 C-31 11.34 -31 10.68 -31 10 C-24.75773106 7.61325011 -18.46426289 5.42705914 -12.125 3.3125 C-11.17625 2.99216797 -10.2275 2.67183594 -9.25 2.34179688 C-8.34507812 2.03951172 -7.44015625 1.73722656 -6.5078125 1.42578125 C-5.68941895 1.15161377 -4.87102539 0.87744629 -4.02783203 0.5949707 C-2 0 -2 0 0 0 Z " fill="#52AFD6" transform="translate(358,365)"/>
<path d="M0 0 C1.67641098 4.09086452 0.2409319 7.71511018 -0.9375 11.75 C-1.13279297 12.44738281 -1.32808594 13.14476562 -1.52929688 13.86328125 C-2.0108246 15.57798973 -2.50425157 17.28934877 -3 19 C-2.34 19 -1.68 19 -1 19 C-1.33 20.65 -1.66 22.3 -2 24 C1.96 23.505 1.96 23.505 6 23 C-0.47719704 28.3897844 -9.63715143 31.41654545 -18 32 C-15.65085508 29.65085508 -14.04320554 29.26859643 -10.875 28.375 C-9.50988281 27.98441406 -9.50988281 27.98441406 -8.1171875 27.5859375 C-7.41851562 27.39257812 -6.71984375 27.19921875 -6 27 C-6.33 23.7 -6.66 20.4 -7 17 C-6.01 16.67 -5.02 16.34 -4 16 C-3.7834375 14.205625 -3.7834375 14.205625 -3.5625 12.375 C-3.12960657 8.8994842 -2.60383744 5.45049966 -2 2 C-1.34 2 -0.68 2 0 2 C0 1.34 0 0.68 0 0 Z " fill="#54B1D5" transform="translate(354,336)"/>
<path d="M0 0 C0.33 0 0.66 0 1 0 C1.32613618 4.67461851 0.70582788 7.16674383 -2 11 C-0.35 10.67 1.3 10.34 3 10 C2.67 10.99 2.34 11.98 2 13 C-0.80948274 13.96020296 -3.63085671 14.5283298 -6.53125 15.15625 C-7.3459375 15.4346875 -8.160625 15.713125 -9 16 C-9.33 16.99 -9.66 17.98 -10 19 C-12.06640625 19.73046875 -12.06640625 19.73046875 -14.5625 20.1875 C-15.38878906 20.34605469 -16.21507812 20.50460937 -17.06640625 20.66796875 C-17.70449219 20.77753906 -18.34257812 20.88710938 -19 21 C-17.14980077 19.04701193 -15.26306263 17.41629721 -13.14453125 15.73828125 C-9.75846021 12.9467352 -7.264503 9.71661709 -4.6875 6.1875 C-3.14793002 4.10402355 -1.59040796 2.04566598 0 0 Z " fill="#37A9D9" transform="translate(384,325)"/>
<path d="M0 0 C2.4613435 0.02396851 4.92162296 0.02048243 7.38305664 0.01391602 C8.97355781 0.01948388 10.56405451 0.02658811 12.15454102 0.03540039 C12.87754898 0.03448898 13.60055695 0.03357758 14.34547424 0.03263855 C19.06983268 0.09803632 22.92615651 0.87641426 27.36938477 2.33618164 C27.36938477 2.66618164 27.36938477 2.99618164 27.36938477 3.33618164 C26.1202832 3.32570801 24.87118164 3.31523437 23.58422852 3.30444336 C18.87267007 3.26776663 14.16112375 3.24511088 9.44946289 3.22631836 C7.4247016 3.21636788 5.39995426 3.20280268 3.37524414 3.18530273 C-8.80816669 3.08276908 -20.58335336 3.39751668 -32.63061523 5.33618164 C-32.63061523 4.67618164 -32.63061523 4.01618164 -32.63061523 3.33618164 C-21.67042318 0.83701957 -11.23440431 -0.11703688 0 0 Z " fill="#7FC6DE" transform="translate(160.630615234375,379.663818359375)"/>
<path d="M0 0 C5.91607822 0.99915988 10.27881601 2.22305281 15 6 C16.38125018 8.76250036 16.19079306 10.94731099 16 14 C11.9474396 18.0525604 4.14153054 17.83733175 -1.4140625 18.125 C-2.94327609 18.125 -4.47243783 18.0710494 -6 18 C-6 17.34 -6 16.68 -6 16 C-4.12612523 15.6603981 -2.25083303 15.32861309 -0.375 15 C0.66914063 14.814375 1.71328125 14.62875 2.7890625 14.4375 C5.90574865 14.01284203 8.85930812 13.92454794 12 14 C11.5020163 10.26512223 11.12508244 8.18762365 9 5 C6.82102508 3.99194445 6.82102508 3.99194445 4.375 3.3125 C3.55773437 3.06113281 2.74046875 2.80976563 1.8984375 2.55078125 C1.27195312 2.36902344 0.64546875 2.18726563 0 2 C0 1.34 0 0.68 0 0 Z " fill="#63B6D6" transform="translate(416,390)"/>
<path d="M0 0 C0.495 1.485 0.495 1.485 1 3 C-0.1796875 5.15625 -0.1796875 5.15625 -1.875 7.5 C-3.73229619 10.09157608 -4.98483238 11.95449714 -6 15 C-13.22351829 15.96465491 -20.28062068 16.11956114 -27.5625 16.0625 C-28.66658203 16.05798828 -29.77066406 16.05347656 -30.90820312 16.04882812 C-33.605527 16.0371514 -36.30273347 16.02077525 -39 16 C-39 15.67 -39 15.34 -39 15 C-37.88882812 14.95101563 -36.77765625 14.90203125 -35.6328125 14.8515625 C-18.08658061 14.46506187 -18.08658061 14.46506187 -4 5 C-2.61667196 3.37458956 -1.25537882 1.72614587 0 0 Z " fill="#63B7D9" transform="translate(335,344)"/>
<path d="M0 0 C0.66 0.33 1.32 0.66 2 1 C3.26768279 9.14938934 -1.73475993 14.51867345 -6.33203125 20.828125 C-9.25715908 24.54567877 -12.86311731 28.62152383 -17 31 C-19.21484375 30.66015625 -19.21484375 30.66015625 -21 30 C-20.01 30 -19.02 30 -18 30 C-18 28.68 -18 27.36 -18 26 C-16.68 26 -15.36 26 -14 26 C-14 25.34 -14 24.68 -14 24 C-13.34 24 -12.68 24 -12 24 C-12.33 23.01 -12.66 22.02 -13 21 C-12.21625 20.79375 -11.4325 20.5875 -10.625 20.375 C-7.71731803 19.21285656 -7.71731803 19.21285656 -6.8125 16.0625 C-6.544375 15.051875 -6.27625 14.04125 -6 13 C-5.34 12.01 -4.68 11.02 -4 10 C-3.34 10 -2.68 10 -2 10 C-2 8.68 -2 7.36 -2 6 C-1.01 6 -0.02 6 1 6 C0.67 4.02 0.34 2.04 0 0 Z " fill="#5AB2D5" transform="translate(401,317)"/>
<path d="M0 0 C0 0.66 0 1.32 0 2 C-4.455 2.495 -4.455 2.495 -9 3 C-9 3.66 -9 4.32 -9 5 C-11.05078125 5.22786458 -13.1015625 5.45572917 -15.15234375 5.68359375 C-17.01140229 5.81886614 -17.01140229 5.81886614 -18 7 C-20.53049402 7.07313567 -23.03304837 7.09247527 -25.5625 7.0625 C-26.27341797 7.05798828 -26.98433594 7.05347656 -27.71679688 7.04882812 C-29.47790013 7.03700864 -31.23896036 7.01907263 -33 7 C-33 6.67 -33 6.34 -33 6 C-36.3 5.34 -39.6 4.68 -43 4 C-43 3.67 -43 3.34 -43 3 C-42.13387085 3.02356567 -42.13387085 3.02356567 -41.25024414 3.04760742 C-29.65223062 3.31983969 -18.7063275 3.05760103 -7.3359375 0.65625 C-4 0 -4 0 0 0 Z " fill="#5EB4D7" transform="translate(299,316)"/>
<path d="M0 0 C-2.96341587 2.48544557 -6.01651601 4.70025915 -9.25 6.8125 C-13.40048925 9.52628143 -17.23664532 12.51851279 -21.0546875 15.6796875 C-23 17 -23 17 -26 17 C-25.67 14.36 -25.34 11.72 -25 9 C-24.34 9 -23.68 9 -23 9 C-22.67 8.01 -22.34 7.02 -22 6 C-22.33 7.98 -22.66 9.96 -23 12 C-21.68 12 -20.36 12 -19 12 C-18.67 10.68 -18.34 9.36 -18 8 C-17.01 8 -16.02 8 -15 8 C-15 7.34 -15 6.68 -15 6 C-14.01 5.67 -13.02 5.34 -12 5 C-11.67 4.34 -11.34 3.68 -11 3 C-7.18687075 0.74678726 -4.44421603 -0.39213671 0 0 Z " fill="#5BB3D4" transform="translate(92,398)"/>
<path d="M0 0 C0.83202438 -0.0033284 1.66404877 -0.0066568 2.52128601 -0.01008606 C4.27354382 -0.01512432 6.02581113 -0.01749535 7.77807617 -0.01733398 C10.4309911 -0.01951626 13.08348678 -0.03769352 15.73632812 -0.05664062 C31.18059486 -0.10635178 31.18059486 -0.10635178 38.29956055 1.73095703 C40.91360989 2.35277076 43.46452 2.23477372 46.13671875 2.16796875 C46.79671875 2.49796875 47.45671875 2.82796875 48.13671875 3.16796875 C48.13671875 3.82796875 48.13671875 4.48796875 48.13671875 5.16796875 C45.53205332 4.85924546 42.92804184 4.54615152 40.32421875 4.23046875 C39.21723633 4.09995117 39.21723633 4.09995117 38.08789062 3.96679688 C34.96938754 3.58580329 32.12563753 3.16427501 29.13671875 2.16796875 C26.42602762 2.07081136 23.74185948 2.02801882 21.03125 2.03515625 C20.23321457 2.03419952 19.43517914 2.0332428 18.61296082 2.03225708 C16.92255576 2.03157658 15.23214808 2.03342185 13.54174805 2.03759766 C10.97633854 2.04291256 8.41110693 2.03766659 5.84570312 2.03125 C4.19921837 2.03191149 2.55273372 2.03319412 0.90625 2.03515625 C-0.23169258 2.0321199 -0.23169258 2.0321199 -1.3926239 2.02902222 C-6.29689197 2.05018506 -11.00691313 2.47621365 -15.86328125 3.16796875 C-15.86328125 2.50796875 -15.86328125 1.84796875 -15.86328125 1.16796875 C-10.53457621 0.2825744 -5.3968991 0.00764507 0 0 Z " fill="#34A5D3" transform="translate(151.86328125,378.83203125)"/>
<path d="M0 0 C0.33 0.66 0.66 1.32 1 2 C0.67 2.99 0.34 3.98 0 5 C-0.66 5 -1.32 5 -2 5 C-2.0825 5.5775 -2.165 6.155 -2.25 6.75 C-3.20710491 9.62131472 -4.8743794 10.8743794 -7 13 C-7.70211894 14.65204456 -8.36971413 16.31923769 -9 18 C-10.5 20.3125 -10.5 20.3125 -12 22 C-12.66 22 -13.32 22 -14 22 C-14.33 22.99 -14.66 23.98 -15 25 C-15.66 25 -16.32 25 -17 25 C-13.41214636 15.31627854 -7.0471587 7.41324486 0 0 Z " fill="#64B7D6" transform="translate(101,340)"/>
<path d="M0 0 C1.60372657 4.00931642 0.38691773 7.05823382 -1 11 C-1.66 11.66 -2.32 12.32 -3 13 C-3.12375 14.258125 -3.2475 15.51625 -3.375 16.8125 C-3.79279392 20.93075438 -5.07689626 22.99092262 -8 26 C-8.86625 26.8971875 -8.86625 26.8971875 -9.75 27.8125 C-10.1625 28.204375 -10.575 28.59625 -11 29 C-10.3832587 23.73269593 -8.68032309 19.33255719 -6.625 14.5 C-6.32078125 13.76652344 -6.0165625 13.03304688 -5.703125 12.27734375 C-3.95433723 8.09968408 -2.07753478 4.02761343 0 0 Z " fill="#58B1D8" transform="translate(83,365)"/>
<path d="M0 0 C9.9 0 19.8 0 30 0 C30 0.33 30 0.66 30 1 C21.42 1.33 12.84 1.66 4 2 C9.94 4.31 15.88 6.62 22 9 C22 9.33 22 9.66 22 10 C17.00455499 9.615735 12.43186692 8.68626867 7.625 7.25 C6.09746094 6.79367187 6.09746094 6.79367187 4.5390625 6.328125 C2 5 2 5 0 0 Z " fill="#66B9D8" transform="translate(250,348)"/>
<path d="M0 0 C1 1 1 1 1.4375 3.25 C0.9390933 6.38284209 0.45045079 6.82653108 -1.875 8.8125 C-5 11 -5 11 -7 11 C-7 10.01 -7 9.02 -7 8 C-6.01 8 -5.02 8 -4 8 C-4 7.34 -4 6.68 -4 6 C-3.34 6 -2.68 6 -2 6 C-2.26676204 4.01508358 -2.26676204 4.01508358 -3 2 C-3.99 1.67 -4.98 1.34 -6 1 C-6 0.01 -6 -0.98 -6 -2 C-15.04235055 -1.34908323 -15.04235055 -1.34908323 -24 0 C-17.85177282 -6.14822718 -6.50422419 -4.73034486 0 0 Z " fill="#6FBDDA" transform="translate(428,337)"/>
<path d="M0 0 C0.66 0.33 1.32 0.66 2 1 C3.43226322 5.51713784 2.92848987 8.78688715 1.14453125 13.0390625 C-1.58205552 17.71055246 -5.49432396 20.39772958 -10.4375 22.375 C-11.283125 22.58125 -12.12875 22.7875 -13 23 C-13 22.34 -13 21.68 -13 21 C-12.01 21 -11.02 21 -10 21 C-10 20.34 -10 19.68 -10 19 C-9.34 19 -8.68 19 -8 19 C-7.67 17.68 -7.34 16.36 -7 15 C-5.68 14.67 -4.36 14.34 -3 14 C-3 13.34 -3 12.68 -3 12 C-2.34 12 -1.68 12 -1 12 C-0.67 8.04 -0.34 4.08 0 0 Z " fill="#52ADD2" transform="translate(322,318)"/>
<path d="M0 0 C9.10544621 2.29824964 17.4768311 6.1402523 26 10 C26 10.33 26 10.66 26 11 C19.7945858 10.51679152 14.00054754 9.66681876 8 8 C8 7.01 8 6.02 8 5 C5.36 4.01 2.72 3.02 0 2 C0 1.34 0 0.68 0 0 Z " fill="#55B1D8" transform="translate(308,373)"/>
<path d="M0 0 C2 2 2 2 2.21118164 4.08789062 C2.19434326 4.93544922 2.17750488 5.78300781 2.16015625 6.65625 C2.14919922 7.59726563 2.13824219 8.53828125 2.12695312 9.5078125 C2.10568359 10.49523437 2.08441406 11.48265625 2.0625 12.5 C1.93051482 19.75429666 2.10706899 26.79340542 3 34 C2.34 33.67 1.68 33.34 1 33 C-0.91746858 27.03902751 -1.2813944 21.60168106 -1.1875 15.375 C-1.18685547 14.55515625 -1.18621094 13.7353125 -1.18554688 12.890625 C-1.15369684 8.48824247 -0.87633055 4.33257825 0 0 Z " fill="#71C0E1" transform="translate(252,192)"/>
<path d="M0 0 C1.875 0.75 1.875 0.75 2.875 2.75 C3.0803974 4.49587791 3.24090626 6.24720319 3.375 8 C3.70298912 11.96190038 4.13518174 15.83953206 4.875 19.75 C2.23904228 17.11404228 1.79797888 14.68812819 0.75 11.125 C0.39679688 9.93648437 0.04359375 8.74796875 -0.3203125 7.5234375 C-0.58585937 6.60820312 -0.85140625 5.69296875 -1.125 4.75 C-3.105 5.74 -3.105 5.74 -5.125 6.75 C-5.3125 4.375 -5.3125 4.375 -5.125 1.75 C-2.125 -0.25 -2.125 -0.25 0 0 Z " fill="#50ADD8" transform="translate(274.125,156.25)"/>
<path d="M0 0 C0.66 0.33 1.32 0.66 2 1 C2.66 1 3.32 1 4 1 C6 3 6 3 6 5 C5.01 5 4.02 5 3 5 C3 5.66 3 6.32 3 7 C1.68 7 0.36 7 -1 7 C-1.33 7.99 -1.66 8.98 -2 10 C-3.32 10 -4.64 10 -6 10 C-6.33 8.68 -6.66 7.36 -7 6 C-4.69 4.02 -2.38 2.04 0 0 Z " fill="#34A5D3" transform="translate(362,348)"/>
<path d="M0 0 C0.66 0.33 1.32 0.66 2 1 C1 3 1 3 -2.375 4.4375 C-5.85978974 5.66607287 -5.85978974 5.66607287 -7.453125 7.4921875 C-10.89784574 10.84992034 -16.38987363 11.90142083 -21.0625 12.1875 C-21.701875 12.125625 -22.34125 12.06375 -23 12 C-18.77732929 8.67028691 -14.2148899 6.53991806 -9.375 4.25 C-8.50359375 3.82589844 -7.6321875 3.40179688 -6.734375 2.96484375 C-5.90164062 2.56910156 -5.06890625 2.17335938 -4.2109375 1.765625 C-3.45087402 1.40243164 -2.69081055 1.03923828 -1.90771484 0.66503906 C-1.27816895 0.44557617 -0.64862305 0.22611328 0 0 Z " fill="#6BBCD7" transform="translate(146,313)"/>
<path d="M0 0 C3.22914752 -0.02917228 6.45826083 -0.04685663 9.6875 -0.0625 C10.59951172 -0.07087891 11.51152344 -0.07925781 12.45117188 -0.08789062 C13.33740234 -0.09111328 14.22363281 -0.09433594 15.13671875 -0.09765625 C15.94842529 -0.10289307 16.76013184 -0.10812988 17.59643555 -0.11352539 C20.14864673 0.0070209 22.51026137 0.440051 25 1 C25 1.33 25 1.66 25 2 C24.0553186 2.029729 24.0553186 2.029729 23.09155273 2.06005859 C20.2064864 2.15598897 17.3220777 2.2653897 14.4375 2.375 C12.9515332 2.42140625 12.9515332 2.42140625 11.43554688 2.46875 C5.92800868 2.68831963 1.24158267 3.32715447 -4 5 C-6.4375 4.625 -6.4375 4.625 -8 4 C-5.09399739 2.74335022 -3.20395416 2 0 2 C0 1.34 0 0.68 0 0 Z " fill="#56B0D3" transform="translate(176,301)"/>
<path d="M0 0 C0.99 0 1.98 0 3 0 C3 0.66 3 1.32 3 2 C4.98 2 6.96 2 9 2 C9 2.66 9 3.32 9 4 C12.3 4.33 15.6 4.66 19 5 C19 5.66 19 6.32 19 7 C19.66 7.33 20.32 7.66 21 8 C14.44151546 7.25826663 7.9880122 6.14229492 1.5 4.9375 C0.48679688 4.75123047 -0.52640625 4.56496094 -1.5703125 4.37304688 C-4.04725462 3.91738299 -6.52379626 3.4596565 -9 3 C-9 2.67 -9 2.34 -9 2 C-7.741875 1.979375 -6.48375 1.95875 -5.1875 1.9375 C-4.47980469 1.92589844 -3.77210938 1.91429687 -3.04296875 1.90234375 C-1 2 -1 2 2 3 C2 2.34 2 1.68 2 1 C1.34 0.67 0.68 0.34 0 0 Z " fill="#5EB5D9" transform="translate(198,381)"/>
<path d="M0 0 C0.66 0.66 1.32 1.32 2 2 C-3.31057459 2.8886833 -8.39885945 3.13355881 -13.77734375 3.09765625 C-14.58869278 3.0962413 -15.40004181 3.09482635 -16.23597717 3.09336853 C-18.80319047 3.08781357 -21.37031348 3.07526967 -23.9375 3.0625 C-25.68814977 3.05747917 -27.43880093 3.05291729 -29.18945312 3.04882812 C-33.4596697 3.03785893 -37.72981959 3.02062582 -42 3 C-42 2.67 -42 2.34 -42 2 C-41.19369141 1.97494385 -40.38738281 1.9498877 -39.55664062 1.92407227 C-35.87096125 1.8073732 -32.18549148 1.68498409 -28.5 1.5625 C-27.2315625 1.52318359 -25.963125 1.48386719 -24.65625 1.44335938 C-16.55420379 1.16907135 -8.04635835 -0.57473988 0 0 Z " fill="#4BA8CF" transform="translate(294,345)"/>
<path d="M0 0 C2 1 2 1 3.125 3 C5.72261372 11.90610419 3.5908633 22.80996542 3 32 C2.34 32 1.68 32 1 32 C0.67 32.99 0.34 33.98 0 35 C0.0721875 34.27296875 0.144375 33.5459375 0.21875 32.796875 C1.23943678 21.73943485 1.21686356 11.03869083 0 0 Z " fill="#69BADC" transform="translate(387,190)"/>
<path d="M0 0 C0.8125 1.625 0.8125 1.625 1 4 C-1.09334693 6.84927776 -3.21630127 9.24429051 -5.75 11.6875 C-7.26795305 13.09507279 -7.26795305 13.09507279 -8 16 C-9.32 16 -10.64 16 -12 16 C-12 16.66 -12 17.32 -12 18 C-12.66 17.67 -13.32 17.34 -14 17 C-4.58997722 5.47835991 -4.58997722 5.47835991 0 0 Z " fill="#53B0D8" transform="translate(276,122)"/>
<path d="M0 0 C9.35518546 2.41349993 18.126276 6.24256466 27 10 C27 10.33 27 10.66 27 11 C21.57960425 11.40652968 17.92984325 10.03993514 13 8 C13 7.34 13 6.68 13 6 C12.34 5.896875 11.68 5.79375 11 5.6875 C7.16158991 4.80786436 3.66903309 3.43030104 0 2 C0 1.34 0 0.68 0 0 Z " fill="#5AB0D2" transform="translate(272,358)"/>
<path d="M0 0 C0.66 0.33 1.32 0.66 2 1 C-0.25859981 5.77440671 -2.53747218 7.08407042 -7.4375 8.875 C-8.57058594 9.30554688 -9.70367187 9.73609375 -10.87109375 10.1796875 C-13.86950593 10.96578807 -15.17667831 11.12377915 -18 10 C-17.19175781 9.60167969 -16.38351562 9.20335937 -15.55078125 8.79296875 C-14.48214844 8.26316406 -13.41351563 7.73335938 -12.3125 7.1875 C-11.25675781 6.66542969 -10.20101563 6.14335937 -9.11328125 5.60546875 C-4.25254065 3.25134858 -4.25254065 3.25134858 0 0 Z " fill="#64B7D8" transform="translate(388,347)"/>
<path d="M0 0 C2.64 0 5.28 0 8 0 C4.71196932 2.19202046 1.91745739 3.04258616 -1.875 4.125 C-3.08929688 4.47820312 -4.30359375 4.83140625 -5.5546875 5.1953125 C-8.5441445 5.89353035 -10.95602755 6.1736106 -14 6 C-14 5.34 -14 4.68 -14 4 C-8.79460379 0.52973586 -5.91125548 1.12784755 0 2 C0 1.34 0 0.68 0 0 Z " fill="#5BB4DB" transform="translate(347,291)"/>
<path d="M0 0 C1.25541557 3.76624671 0.37061958 5.37188934 -1 9 C-1.99 9 -2.98 9 -4 9 C-4.33 9.99 -4.66 10.98 -5 12 C-6.29355827 13.37195574 -7.62298702 14.71182656 -9 16 C-9.99 15.67 -10.98 15.34 -12 15 C-8 10 -4 5 0 0 Z " fill="#59B3DA" transform="translate(261,140)"/>
<path d="M0 0 C-1.98 0.33 -3.96 0.66 -6 1 C-6 1.66 -6 2.32 -6 3 C-5.01 3.33 -4.02 3.66 -3 4 C-3 4.66 -3 5.32 -3 6 C-2.01 6 -1.02 6 0 6 C0 6.66 0 7.32 0 8 C-4.72463088 7.53680089 -8.17057052 6.90108294 -12 4 C-12 3.34 -12 2.68 -12 2 C-10.75579353 1.4654744 -9.50429064 0.94791389 -8.25 0.4375 C-7.55390625 0.14746094 -6.8578125 -0.14257812 -6.140625 -0.44140625 C-3.69987216 -1.07831803 -2.3596345 -0.80248831 0 0 Z " fill="#68B7D6" transform="translate(339,373)"/>
<path d="M0 0 C0.99 0 1.98 0 3 0 C3.66 1.65 4.32 3.3 5 5 C4.01 5.495 4.01 5.495 3 6 C3 6.99 3 7.98 3 9 C3.66 9 4.32 9 5 9 C4.67 9.66 4.34 10.32 4 11 C1.03 8.69 -1.94 6.38 -5 4 C-3.68 3.67 -2.36 3.34 -1 3 C-0.67 2.01 -0.34 1.02 0 0 Z " fill="#47B0DC" transform="translate(299,194)"/>
<path d="M0 0 C1.65 0.33 3.3 0.66 5 1 C1.29909479 4.9252025 -2.54959656 7.94580156 -7 11 C-7.33 10.34 -7.66 9.68 -8 9 C-7.34 9 -6.68 9 -6 9 C-6 7.35 -6 5.7 -6 4 C-4.35 4 -2.7 4 -1 4 C-0.67 2.68 -0.34 1.36 0 0 Z " fill="#4EADD4" transform="translate(410,351)"/>
<path d="M0 0 C0 4.32075427 -1.24079439 7.64694961 -4 11 C-6.95648144 12.25688626 -9.81045355 12.72738919 -13 13 C-11.09233519 11.04138865 -9.20235921 9.35509894 -7.0625 7.625 C-4.30033001 5.35878073 -2.1361283 2.87555732 0 0 Z " fill="#71BFDA" transform="translate(378,333)"/>
<path d="M0 0 C0.99 0 1.98 0 3 0 C1.63348611 3.51118152 0.11532105 6.90949133 -1.5 10.3125 C-3.58389432 14.8491195 -4.98706047 19.11947317 -6 24 C-6.33 24 -6.66 24 -7 24 C-6.68676801 16.63904818 -5.06085395 10.69116911 -2 4 C-1.34 4 -0.68 4 0 4 C0 2.68 0 1.36 0 0 Z " fill="#6BBBDE" transform="translate(261,169)"/>
<path d="M0 0 C0.33 1.32 0.66 2.64 1 4 C0.34 4 -0.32 4 -1 4 C-1 4.99 -1 5.98 -1 7 C-1.99 7.66 -2.98 8.32 -4 9 C-4.28875 9.66 -4.5775 10.32 -4.875 11 C-6.40185248 13.71440441 -8.10513932 14.08583347 -11 15 C-8.88060821 11.28939292 -6.5076108 8.00116082 -3.8125 4.6875 C-2.73935547 3.36298828 -2.73935547 3.36298828 -1.64453125 2.01171875 C-1.10183594 1.34785156 -0.55914062 0.68398437 0 0 Z " fill="#62B9DA" transform="translate(310,80)"/>
<path d="M0 0 C0 0.99 0 1.98 0 3 C-0.33 2.34 -0.66 1.68 -1 1 C-2.32 1 -3.64 1 -5 1 C-5.33 2.65 -5.66 4.3 -6 6 C-6.99 6.33 -7.98 6.66 -9 7 C-9.33 7.66 -9.66 8.32 -10 9 C-10.99 8.67 -11.98 8.34 -13 8 C-12.04663979 6.68388323 -11.08714226 5.37221039 -10.125 4.0625 C-9.59132813 3.33160156 -9.05765625 2.60070312 -8.5078125 1.84765625 C-5.74404489 -1.53903307 -4.00245592 -0.94795009 0 0 Z " fill="#60B7D9" transform="translate(324,71)"/>
<path d="M0 0 C0.66 0.33 1.32 0.66 2 1 C2.88339877 7.91995707 0.11868832 11.59422159 -4 17 C-4.66 15.68 -5.32 14.36 -6 13 C-5.34 12.01 -4.68 11.02 -4 10 C-3.34 10 -2.68 10 -2 10 C-2 8.68 -2 7.36 -2 6 C-1.01 6 -0.02 6 1 6 C0.67 4.02 0.34 2.04 0 0 Z " fill="#6CB9D7" transform="translate(401,317)"/>
<path d="M0 0 C0 0.66 0 1.32 0 2 C-0.66 2 -1.32 2 -2 2 C-2.33 2.99 -2.66 3.98 -3 5 C-4.92578125 5.765625 -4.92578125 5.765625 -7.3125 6.25 C-8.48232422 6.50523437 -8.48232422 6.50523437 -9.67578125 6.765625 C-12.07651867 7.00771617 -13.71809588 6.7310448 -16 6 C-13.7101766 4.9955866 -11.4183401 3.99632388 -9.125 3 C-8.14853516 2.57074219 -8.14853516 2.57074219 -7.15234375 2.1328125 C-2.2265625 0 -2.2265625 0 0 0 Z " fill="#68B9D9" transform="translate(164,306)"/>
<path d="M0 0 C0.99 0.33 1.98 0.66 3 1 C1.33248852 4.94139078 -1.22710649 7.7892812 -4 11 C-5 8 -5 8 -5 4 C-2.6875 1.6875 -2.6875 1.6875 0 0 Z " fill="#59B6E1" transform="translate(390,260)"/>
<path d="M0 0 C0.66 0 1.32 0 2 0 C2 0.66 2 1.32 2 2 C2.66 2 3.32 2 4 2 C4 2.66 4 3.32 4 4 C4.639375 4.20625 5.27875 4.4125 5.9375 4.625 C8 6 8 6 8.75 9.125 C8.87375 10.548125 8.87375 10.548125 9 12 C4.58690458 8.84778899 1.99206986 5.44536093 -1 1 C-0.67 0.67 -0.34 0.34 0 0 Z " fill="#5EB5D9" transform="translate(365,152)"/>
<path d="M0 0 C1 3 1 3 -0.1875 5.9375 C-1.90299839 8.83610073 -3.39353469 10.88224694 -6 13 C-6.99 13 -7.98 13 -9 13 C-7.50923566 9.7173068 -5.61379679 7.06922559 -3.375 4.25 C-2.74335938 3.45078125 -2.11171875 2.6515625 -1.4609375 1.828125 C-0.97882813 1.22484375 -0.49671875 0.6215625 0 0 Z " fill="#5FB9DC" transform="translate(291,103)"/>
<path d="M0 0 C1.37478516 0.01740234 1.37478516 0.01740234 2.77734375 0.03515625 C3.69644531 0.04417969 4.61554688 0.05320312 5.5625 0.0625 C6.27277344 0.07410156 6.98304687 0.08570313 7.71484375 0.09765625 C4.86337945 1.99863245 2.41773899 3.06031524 -0.78515625 4.22265625 C-1.74421875 4.57585937 -2.70328125 4.9290625 -3.69140625 5.29296875 C-6.28515625 6.09765625 -6.28515625 6.09765625 -9.28515625 6.09765625 C-9.28515625 5.43765625 -9.28515625 4.77765625 -9.28515625 4.09765625 C-8.31578125 3.62328125 -7.34640625 3.14890625 -6.34765625 2.66015625 C-1.23739506 0.05288013 -1.23739506 0.05288013 0 0 Z " fill="#5AB1D4" transform="translate(111.28515625,386.90234375)"/>
<path d="M0 0 C0.99 0.33 1.98 0.66 3 1 C1.23436021 2.65172755 -0.53704598 4.29638045 -2.3125 5.9375 C-3.06176758 6.64036133 -3.06176758 6.64036133 -3.82617188 7.35742188 C-6.21561016 9.55697103 -7.88080438 10.96026813 -11 12 C-9.42586583 7.90725115 -6.45897623 4.64043987 -3 2 C-2.01 2 -1.02 2 0 2 C0 1.34 0 0.68 0 0 Z " fill="#61B3D2" transform="translate(400,362)"/>
<path d="M0 0 C1.67641098 4.09086452 0.2409319 7.71511018 -0.9375 11.75 C-1.13279297 12.44738281 -1.32808594 13.14476562 -1.52929688 13.86328125 C-2.0108246 15.57798973 -2.50425157 17.28934877 -3 19 C-3.33 19 -3.66 19 -4 19 C-4.25706972 13.08739655 -3.2982126 7.76081841 -2 2 C-1.34 2 -0.68 2 0 2 C0 1.34 0 0.68 0 0 Z " fill="#70BDDA" transform="translate(354,336)"/>
<path d="M0 0 C0 0.33 0 0.66 0 1 C-1.6396875 1.4021875 -1.6396875 1.4021875 -3.3125 1.8125 C-6.88982994 2.96452151 -7.62879764 3.42260613 -10 6 C-11.97620986 7.04622875 -13.9737129 8.05439935 -16 9 C-14.43989422 4.78771439 -11.5154607 2.65453155 -8 0 C-4.71023192 -1.09658936 -3.28696233 -0.79953138 0 0 Z " fill="#84C6DC" transform="translate(401,316)"/>
<path d="M0 0 C0.515625 0.680625 1.03125 1.36125 1.5625 2.0625 C4.50071413 5.60342473 7.70787019 8.79109819 11 12 C8 13 8 13 5.9375 12.3125 C3.63781111 10.75464624 2.94224634 9.59117744 2 7 C2 6.01 2 5.02 2 4 C1.34 4 0.68 4 0 4 C0 2.68 0 1.36 0 0 Z " fill="#6CC1E1" transform="translate(301,170)"/>
<path d="M0 0 C0.33 0.99 0.66 1.98 1 3 C1.66 3 2.32 3 3 3 C5.03993514 7.92984325 6.40652968 11.57960425 6 17 C3.9105012 13.8657518 2.43554114 10.73890554 0.875 7.3125 C0.33617187 6.13300781 -0.20265625 4.95351562 -0.7578125 3.73828125 C-1.16773438 2.83464844 -1.57765625 1.93101562 -2 1 C-1.34 0.67 -0.68 0.34 0 0 Z " fill="#5FB5DA" transform="translate(380,169)"/>
<path d="M0 0 C0.66 0 1.32 0 2 0 C2.33 0.66 2.66 1.32 3 2 C5.02463255 2.65213292 5.02463255 2.65213292 7 3 C6.67 5.64 6.34 8.28 6 11 C3.37997275 8.62949916 1.64180091 6.12723983 0 3 C0 2.01 0 1.02 0 0 Z " fill="#54B2DE" transform="translate(240,246)"/>
<path d="M0 0 C0.66 0.33 1.32 0.66 2 1 C1.34 1.66 0.68 2.32 0 3 C0.33 3.66 0.66 4.32 1 5 C0.67 5.66 0.34 6.32 0 7 C-2.06640625 7.6328125 -2.06640625 7.6328125 -4.5625 8.125 C-5.38878906 8.29257812 -6.21507813 8.46015625 -7.06640625 8.6328125 C-7.70449219 8.75398438 -8.34257813 8.87515625 -9 9 C-6.31941902 5.42589203 -3.57410797 2.68058098 0 0 Z " fill="#64B8D8" transform="translate(111,331)"/>
<path d="M0 0 C4.55015893 1.51671964 6.50057264 5.16891053 9 9 C8.01 9.495 8.01 9.495 7 10 C7 9.34 7 8.68 7 8 C6.030625 7.690625 5.06125 7.38125 4.0625 7.0625 C1 6 1 6 0 5 C-0.04063832 3.33382885 -0.042721 1.66611905 0 0 Z " fill="#57B5DD" transform="translate(362,120)"/>
<path d="M0 0 C6.75 1.75 6.75 1.75 9 4 C5.98968256 4.93423645 5.13349732 5.04449911 2 4 C1.01 4 0.02 4 -1 4 C-1.99 4 -2.98 4 -4 4 C-2.68 2.68 -1.36 1.36 0 0 Z " fill="#50B7E2" transform="translate(363,346)"/>
<path d="M0 0 C2 1 2 1 3 3 C1.948125 3.226875 0.89625 3.45375 -0.1875 3.6875 C-4.1597906 4.79360531 -6.29599637 6.88629885 -9 10 C-9.99 9.67 -10.98 9.34 -12 9 C-10.56351736 7.87370125 -9.12577415 6.7490101 -7.6875 5.625 C-6.88699219 4.99851562 -6.08648437 4.37203125 -5.26171875 3.7265625 C-3.55336788 2.42243282 -1.78827274 1.19218183 0 0 Z " fill="#67B9D5" transform="translate(402,337)"/>
<path d="M0 0 C1.75 1.125 1.75 1.125 3 3 C3.6875 6.1875 3.6875 6.1875 4 9 C3.34 7.68 2.68 6.36 2 5 C1.34 5 0.68 5 0 5 C-0.33 4.34 -0.66 3.68 -1 3 C-3.31 3.33 -5.62 3.66 -8 4 C-7.67 3.01 -7.34 2.02 -7 1 C-4.45132831 -0.27433584 -2.82594567 -0.27570202 0 0 Z " fill="#78BFD7" transform="translate(356,313)"/>
<path d="M0 0 C1.1796875 1.578125 1.1796875 1.578125 2 4 C0.8828125 7.234375 0.8828125 7.234375 -0.875 10.75 C-1.44992187 11.92046875 -2.02484375 13.0909375 -2.6171875 14.296875 C-3.07351563 15.18890625 -3.52984375 16.0809375 -4 17 C-4.33 17 -4.66 17 -5 17 C-5.55877857 12.52977146 -4.0713462 9.76354778 -1.97265625 5.96484375 C-0.992939 3.98573622 -0.45581048 2.15430429 0 0 Z " fill="#76C2E2" transform="translate(404,235)"/>
<path d="M0 0 C3.1533336 1.5766668 3.58090551 4.71600376 4.6875 7.875 C4.92533203 8.51308594 5.16316406 9.15117187 5.40820312 9.80859375 C7.12384055 14.62847836 7.12384055 14.62847836 6 18 C2.87079449 11.88382559 0.80798529 6.86787494 0 0 Z " fill="#7EC8E4" transform="translate(401,170)"/>
<path d="M0 0 C0.66 0.33 1.32 0.66 2 1 C3.75098472 6.52233643 2.19579693 9.90575113 0 15 C-0.33 15 -0.66 15 -1 15 C-0.67 10.05 -0.34 5.1 0 0 Z " fill="#70BAD7" transform="translate(322,318)"/>
<path d="M0 0 C4.39453125 0.73242188 4.39453125 0.73242188 8.7890625 1.46484375 C10.37847656 1.72974609 10.37847656 1.72974609 12 2 C14 2.33333333 16 2.66666667 18 3 C18 3.33 18 3.66 18 4 C13.38 4 8.76 4 4 4 C4 3.34 4 2.68 4 2 C2.68 1.34 1.36 0.68 0 0 Z " fill="#6DBCDB" transform="translate(237,315)"/>
<path d="M0 0 C3.63 0 7.26 0 11 0 C11 0.99 11 1.98 11 3 C12.32 3.33 13.64 3.66 15 4 C11.21180727 5.43410153 8.93478721 4.51009497 5.25 3.0625 C3.77273438 2.49208984 3.77273438 2.49208984 2.265625 1.91015625 C1.51796875 1.60980469 0.7703125 1.30945313 0 1 C0 0.67 0 0.34 0 0 Z " fill="#58B0D6" transform="translate(285,290)"/>
<path d="M0 0 C5.28 0.33 10.56 0.66 16 1 C16 1.66 16 2.32 16 3 C16.66 3.33 17.32 3.66 18 4 C11.91766294 3.32418477 5.98685848 2.26361972 0 1 C0 0.67 0 0.34 0 0 Z " fill="#75C0DA" transform="translate(201,385)"/>
<path d="M0 0 C0.33 0.99 0.66 1.98 1 3 C-0.8125 5.6875 -0.8125 5.6875 -3 8 C-3.66 8 -4.32 8 -5 8 C-5.33 8.99 -5.66 9.98 -6 11 C-6.66 11 -7.32 11 -8 11 C-6.80271213 7.59233453 -5.71278039 5.38724674 -3 3 C-2.1646875 2.1646875 -2.1646875 2.1646875 -1.3125 1.3125 C-0.879375 0.879375 -0.44625 0.44625 0 0 Z " fill="#50B1D6" transform="translate(92,354)"/>
<path d="M0 0 C0.99 0.66 1.98 1.32 3 2 C3 2.66 3 3.32 3 4 C2.01 4 1.02 4 0 4 C0 4.66 0 5.32 0 6 C-2.4375 5.625 -2.4375 5.625 -5 5 C-5.33 4.34 -5.66 3.68 -6 3 C-4.02 2.01 -2.04 1.02 0 0 Z " fill="#35ADE3" transform="translate(365,349)"/>
<path d="M0 0 C2 1 4 2 6 3 C6 3.99 6 4.98 6 6 C6.99 6.33 7.98 6.66 9 7 C9.33 8.65 9.66 10.3 10 12 C5.22864787 8.42148591 2.70923672 5.31427203 0 0 Z " fill="#61B7DB" transform="translate(284,185)"/>
<path d="M0 0 C9.41002278 -0.3690205 9.41002278 -0.3690205 14 2 C14 2.33 14 2.66 14 3 C8.78020872 3.1799928 4.92737019 2.97094808 0 1 C0 0.67 0 0.34 0 0 Z " fill="#56AFCF" transform="translate(284,402)"/>
<path d="M0 0 C5.11365014 1.0681847 10.07227969 2.23107476 15 4 C15 4.33 15 4.66 15 5 C4.44191344 4.22095672 4.44191344 4.22095672 0 2 C0 1.34 0 0.68 0 0 Z " fill="#62B5D5" transform="translate(201,303)"/>
<path d="M0 0 C0.33 0 0.66 0 1 0 C1 2.64 1 5.28 1 8 C0.34 8 -0.32 8 -1 8 C-1.66 10.31 -2.32 12.62 -3 15 C-3.66 15 -4.32 15 -5 15 C-3.33333333 10 -1.66666667 5 0 0 Z " fill="#72C0DE" transform="translate(386,225)"/>
<path d="M0 0 C1.33895632 1.66215268 2.67130142 3.32963607 4 5 C4.5775 5.721875 5.155 6.44375 5.75 7.1875 C7 9 7 9 7 11 C5.1875 10.875 5.1875 10.875 3 10 C0.71094011 6.32115375 0 4.38448044 0 0 Z " fill="#62B8DC" transform="translate(360,221)"/>
<path d="M0 0 C1.2077558 3.62326739 0.54311128 4.64146369 -1 8 C-2.32 8 -3.64 8 -5 8 C-5 8.66 -5 9.32 -5 10 C-5.66 9.67 -6.32 9.34 -7 9 C-4.69 6.03 -2.38 3.06 0 0 Z " fill="#62B8DF" transform="translate(269,130)"/>
<path d="M0 0 C3.46941546 0.45822468 6.67395049 0.89131683 10 2 C10 2.66 10 3.32 10 4 C10.99 4.33 11.98 4.66 13 5 C5.57142857 4 5.57142857 4 2 3 C2 2.34 2 1.68 2 1 C1.34 0.67 0.68 0.34 0 0 Z " fill="#5EB3D5" transform="translate(217,387)"/>
<path d="M0 0 C5.77807024 -0.2358396 10.51324804 0.13216954 16 2 C16 2.33 16 2.66 16 3 C10.21101581 3.20674944 5.57067277 2.59162079 0 1 C0 0.67 0 0.34 0 0 Z " fill="#6DBBD9" transform="translate(172,380)"/>
<path d="M0 0 C0.66 0 1.32 0 2 0 C3.38125018 2.76250036 3.19079306 4.94731099 3 8 C2.34 8.66 1.68 9.32 1 10 C0.690625 9.05125 0.38125 8.1025 0.0625 7.125 C-0.87394742 4.13919592 -0.87394742 4.13919592 -2 2 C-1.34 2 -0.68 2 0 2 C0 1.34 0 0.68 0 0 Z " fill="#51B2DB" transform="translate(356,318)"/>
<path d="M0 0 C2.475 0.99 2.475 0.99 5 2 C5 3.98 5 5.96 5 8 C4.01 6.68 3.02 5.36 2 4 C1.01 4.66 0.02 5.32 -1 6 C-1.042721 4.33388095 -1.04063832 2.66617115 -1 1 C-0.67 0.67 -0.34 0.34 0 0 Z " fill="#74C5E6" transform="translate(270,157)"/>
<path d="M0 0 C1.98 0 3.96 0 6 0 C6.33 0.99 6.66 1.98 7 3 C9.00016466 4.20882096 9.00016466 4.20882096 11 5 C10.34 5.66 9.68 6.32 9 7 C8.443125 6.360625 7.88625 5.72125 7.3125 5.0625 C4.77933439 2.80319013 3.31658576 2.36850953 0 2 C0 1.34 0 0.68 0 0 Z " fill="#6DBBDD" transform="translate(318,101)"/>
<path d="M0 0 C1.44010481 0.25662245 2.8770687 0.53090821 4.3125 0.8125 C5.11300781 0.96332031 5.91351563 1.11414063 6.73828125 1.26953125 C9.23445587 2.07572236 10.32422106 3.02052002 12 5 C10.56206608 4.68950274 9.1246682 4.3765224 7.6875 4.0625 C6.88699219 3.88847656 6.08648437 3.71445312 5.26171875 3.53515625 C3 3 3 3 0 2 C0 1.34 0 0.68 0 0 Z " fill="#6DB9D6" transform="translate(416,390)"/>
<path d="M0 0 C2.29160319 -0.02692484 4.58329546 -0.04636124 6.875 -0.0625 C8.15117187 -0.07410156 9.42734375 -0.08570313 10.7421875 -0.09765625 C14 0 14 0 16 1 C16 1.66 16 2.32 16 3 C10.72 2.34 5.44 1.68 0 1 C0 0.67 0 0.34 0 0 Z " fill="#3FA1C9" transform="translate(184,381)"/>
<path d="M0 0 C-1.4096347 0.70180531 -2.82807641 1.38593958 -4.25 2.0625 C-5.03890625 2.44535156 -5.8278125 2.82820313 -6.640625 3.22265625 C-9.25993522 4.08564091 -10.44855176 3.93045933 -13 3 C-8.61857449 0.07904966 -5.13850792 -1.56485878 0 0 Z " fill="#61B3D2" transform="translate(309,342)"/>
<path d="M0 0 C1.10844919 3.32534757 0.84454356 5.62182575 0 9 C-1.32 9.33 -2.64 9.66 -4 10 C-3.52449439 8.51965236 -3.04448784 7.04074979 -2.5625 5.5625 C-2.29566406 4.73878906 -2.02882813 3.91507812 -1.75390625 3.06640625 C-1 1 -1 1 0 0 Z " fill="#63B8D7" transform="translate(347,317)"/>
<path d="M0 0 C1.5 1.3125 1.5 1.3125 3 3 C3 3.99 3 4.98 3 6 C3.66 6.33 4.32 6.66 5 7 C0.61031544 7 -0.76905739 4.87194899 -4 2 C-2.68 1.34 -1.36 0.68 0 0 Z " fill="#60B9DD" transform="translate(333,221)"/>
<path d="M0 0 C4.42857143 5.14285714 4.42857143 5.14285714 5 9 C4.34 9 3.68 9 3 9 C2 8 1 7 0 6 C-0.66 6 -1.32 6 -2 6 C-1.33333333 4 -0.66666667 2 0 0 Z " fill="#61BAE1" transform="translate(395,159)"/>
<path d="M0 0 C2.64 0 5.28 0 8 0 C5.14693203 2.32472205 2.45925163 3.7508258 -1 5 C-0.67 3.35 -0.34 1.7 0 0 Z " fill="#63BAD9" transform="translate(372,348)"/>
<path d="M0 0 C0.33 0 0.66 0 1 0 C1 1.65 1 3.3 1 5 C0.34 5 -0.32 5 -1 5 C-1.144375 5.61875 -1.28875 6.2375 -1.4375 6.875 C-2 9 -2 9 -3 11 C-3.66 11 -4.32 11 -5 11 C-3.77782954 6.95743617 -2.37245704 3.50711041 0 0 Z " fill="#66B9E0" transform="translate(244,162)"/>
<path d="M0 0 C5.94 1.485 5.94 1.485 12 3 C12 3.33 12 3.66 12 4 C7.17639811 4.19294408 3.50353262 3.75747614 -1 2 C-0.67 1.34 -0.34 0.68 0 0 Z " fill="#4AABD0" transform="translate(334,384)"/>
<path d="M0 0 C1.62723299 0.45034123 3.25173664 0.91055354 4.875 1.375 C5.77992188 1.63023437 6.68484375 1.88546875 7.6171875 2.1484375 C10 3 10 3 12 5 C7.6822542 4.49202991 3.96697886 3.80317221 0 2 C0 1.34 0 0.68 0 0 Z " fill="#63B7D5" transform="translate(308,373)"/>
<path d="M0 0 C0 0.66 0 1.32 0 2 C-2.75 4.1875 -2.75 4.1875 -6 6 C-8.203125 5.61328125 -8.203125 5.61328125 -10 5 C-8.71186658 4.16121545 -7.41936744 3.32913217 -6.125 2.5 C-5.40570313 2.0359375 -4.68640625 1.571875 -3.9453125 1.09375 C-2 0 -2 0 0 0 Z " fill="#69B6D3" transform="translate(123,325)"/>
<path d="M0 0 C3.125 -0.1875 3.125 -0.1875 6 0 C6.33 1.98 6.66 3.96 7 6 C6.62875 5.505 6.2575 5.01 5.875 4.5 C3.25305607 2.40244486 1.26157528 2.78256165 -2 3 C-1.34 2.01 -0.68 1.02 0 0 Z " fill="#44A7D0" transform="translate(395,317)"/>
<path d="M0 0 C2.31 0.66 4.62 1.32 7 2 C7 3.65 7 5.3 7 7 C5.83040013 6.02433888 4.66438823 5.044375 3.5 4.0625 C2.8503125 3.51722656 2.200625 2.97195313 1.53125 2.41015625 C1.0259375 1.94480469 0.520625 1.47945313 0 1 C0 0.67 0 0.34 0 0 Z " fill="#5EB4DE" transform="translate(253,267)"/>
<path d="M0 0 C0.33 0.99 0.66 1.98 1 3 C1.99 2.67 2.98 2.34 4 2 C3.67 4.31 3.34 6.62 3 9 C2.01 8.34 1.02 7.68 0 7 C-0.1875 3.375 -0.1875 3.375 0 0 Z " fill="#3FACD8" transform="translate(386,182)"/>
<path d="M0 0 C1.65 0 3.3 0 5 0 C5.33 2.31 5.66 4.62 6 7 C1.125 2.25 1.125 2.25 0 0 Z " fill="#58B3DC" transform="translate(335,117)"/>
<path d="M0 0 C0.33 0 0.66 0 1 0 C1 1.98 1 3.96 1 6 C-0.98 6.66 -2.96 7.32 -5 8 C-3.6299034 5.0490227 -2.06764583 2.51713405 0 0 Z " fill="#77C0DC" transform="translate(384,325)"/>
<path d="M0 0 C1.33597652 0.80814651 2.668725 1.62163181 4 2.4375 C5.11375 3.11619141 5.11375 3.11619141 6.25 3.80859375 C6.8275 4.20175781 7.405 4.59492188 8 5 C8 5.33 8 5.66 8 6 C6.35 6 4.7 6 3 6 C2.67 5.01 2.34 4.02 2 3 C1.01 3 0.02 3 -1 3 C-0.67 2.01 -0.34 1.02 0 0 Z " fill="#6ABDDF" transform="translate(278,260)"/>
<path d="M0 0 C3.171632 0.3171632 6.07030051 1.77929188 9 3 C4.91556885 4.53166168 1.20544343 3.63081652 -3 3 C-1.75 1.4375 -1.75 1.4375 0 0 Z " fill="#33A4D5" transform="translate(309,404)"/>
<path d="M0 0 C-1.28913487 0.67154933 -2.58140204 1.33708859 -3.875 2 C-4.59429687 2.37125 -5.31359375 2.7425 -6.0546875 3.125 C-8 4 -8 4 -10 4 C-9 1 -9 1 -6.6875 -0.25 C-3.83402593 -1.04631835 -2.75197675 -0.8214856 0 0 Z " fill="#63B4D5" transform="translate(102,394)"/>
<path d="M0 0 C1.67542976 0.28604898 3.34385343 0.61781233 5 1 C3.3545622 2.68762851 1.68711423 4.3540349 0 6 C-0.33 6 -0.66 6 -1 6 C-1.042721 4.33388095 -1.04063832 2.66617115 -1 1 C-0.67 0.67 -0.34 0.34 0 0 Z " fill="#56B3D7" transform="translate(410,351)"/>
<path d="M0 0 C1.67542976 0.28604898 3.34385343 0.61781233 5 1 C4.67 1.99 4.34 2.98 4 4 C3.401875 3.79375 2.80375 3.5875 2.1875 3.375 C-0.28450846 2.69328085 -0.28450846 2.69328085 -3 5 C-1.125 1.125 -1.125 1.125 0 0 Z " fill="#37A3CD" transform="translate(388,322)"/>
<path d="M0 0 C5.445 1.485 5.445 1.485 11 3 C11 3.33 11 3.66 11 4 C3.57142857 4.28571429 3.57142857 4.28571429 0 2 C0 1.34 0 0.68 0 0 Z " fill="#78C3DE" transform="translate(217,308)"/>
<path d="M0 0 C0.33 0 0.66 0 1 0 C1 2.97 1 5.94 1 9 C0.01 9.33 -0.98 9.66 -2 10 C-1.54177532 6.53058454 -1.10868317 3.32604951 0 0 Z " fill="#6EBEE4" transform="translate(236,178)"/>
<path d="M0 0 C1.76462683 3.08809695 2 4.23312136 2 8 C1.01 8 0.02 8 -1 8 C-0.67 5.36 -0.34 2.72 0 0 Z " fill="#86C1D6" transform="translate(67,407)"/>
<path d="M0 0 C2.31 0.33 4.62 0.66 7 1 C7 1.66 7 2.32 7 3 C7.66 3.33 8.32 3.66 9 4 C8.01 4.495 8.01 4.495 7 5 C4.5249829 3.88568235 2.32116581 2.41849022 0 1 C0 0.67 0 0.34 0 0 Z " fill="#60B8DC" transform="translate(270,282)"/>
<path d="M0 0 C1.125 3.75 1.125 3.75 0 6 C1.32 6 2.64 6 4 6 C4 6.66 4 7.32 4 8 C3.01 8.33 2.02 8.66 1 9 C0.34 8.34 -0.32 7.68 -1 7 C-0.625 3.375 -0.625 3.375 0 0 Z " fill="#51ACCB" transform="translate(69,404)"/>
<path d="M0 0 C0.66 0.33 1.32 0.66 2 1 C1.34 1.66 0.68 2.32 0 3 C0.33 3.66 0.66 4.32 1 5 C0.34 5.66 -0.32 6.32 -1 7 C-1.99 6.34 -2.98 5.68 -4 5 C-2.68 3.35 -1.36 1.7 0 0 Z " fill="#5AB3DA" transform="translate(111,331)"/>
<path d="M0 0 C0.66 0.33 1.32 0.66 2 1 C1.6875 3.875 1.6875 3.875 1 7 C0.01 7.66 -0.98 8.32 -2 9 C-1.34 6.03 -0.68 3.06 0 0 Z " fill="#55ACCE" transform="translate(394,331)"/>
<path d="M0 0 C0.99 0.33 1.98 0.66 3 1 C3 4.3 3 7.6 3 11 C2.67 11 2.34 11 2 11 C1.34 7.37 0.68 3.74 0 0 Z " fill="#6FC2E1" transform="translate(348,245)"/>
<path d="M0 0 C0.33 1.32 0.66 2.64 1 4 C0.01 4 -0.98 4 -2 4 C-2.66 5.32 -3.32 6.64 -4 8 C-4.66 7.67 -5.32 7.34 -6 7 C-4.02 4.69 -2.04 2.38 0 0 Z " fill="#6CBCDE" transform="translate(298,95)"/>
</svg>
